<svg width="182" height="44" viewBox="0 0 182 44" fill="none" xmlns="http://www.w3.org/2000/svg">
<path d="M78.9252 13.2931C79.0954 13.2252 79.2447 13.1137 79.358 12.9698C80.6783 11.7435 82.3775 11.003 84.1756 10.8704C85.3186 10.7853 86.4674 10.8218 87.6026 10.9794C88.2575 11.0565 88.9199 11.126 89.5654 11.235C90.0772 11.3131 90.563 11.5121 90.9823 11.8154C91.4016 12.1188 91.7423 12.5178 91.9761 12.9792C92.3354 13.6704 92.5335 14.4337 92.5557 15.2121C92.5976 16.2022 92.5065 17.1934 92.2847 18.1592C91.6637 21.0988 91.0257 24.0346 90.4028 26.9723C90.066 28.5455 89.7423 30.1206 89.4111 31.6956C89.3745 31.9054 89.3242 32.1126 89.2605 32.3158C89.213 32.4753 89.1216 32.6183 88.9969 32.7285C88.8722 32.8388 88.719 32.912 88.5548 32.9398C88.3638 32.9758 88.1694 32.9903 87.9752 32.9831C87.5292 32.9643 87.0832 32.9267 86.6372 32.9286C86.0557 32.9286 85.4723 32.9643 84.8908 32.9831C84.6779 33.0069 84.4626 32.9929 84.2547 32.9417C84.1284 32.9197 84.0149 32.8514 83.9362 32.7503C83.8576 32.6492 83.8195 32.5224 83.8294 32.3948C83.8312 32.2207 83.8521 32.0474 83.8915 31.8779C84.5062 29.0173 85.1272 26.1572 85.7545 23.2979C86.1083 21.6702 86.4697 20.0425 86.799 18.4111C86.9176 17.8265 87.0135 17.2326 86.878 16.6236C86.8226 16.3271 86.6929 16.0494 86.5011 15.8164C86.3093 15.5834 86.0615 15.4027 85.7809 15.291C85.29 15.1026 84.7693 15.0033 84.2434 14.9978C83.3114 14.9467 82.3767 15.0098 81.4601 15.1858C80.8162 15.2944 80.2073 15.5544 79.6838 15.9443C79.1603 16.3341 78.737 16.8427 78.449 17.4281C78.0542 18.2044 77.7523 19.0246 77.5495 19.8715C76.9228 22.3149 76.3846 24.7752 75.8878 27.2449C75.5867 28.7485 75.2831 30.2521 74.9769 31.7557C74.953 31.8893 74.9203 32.0212 74.8791 32.1504C74.6796 32.75 74.3559 32.9887 73.7123 33C73.4997 33 73.2851 33 73.0725 32.9737C72.3757 32.9132 71.6752 32.9101 70.9779 32.9643C70.7257 32.9812 70.4717 32.9925 70.2252 32.9868C70.0707 32.9812 69.9173 32.9585 69.7679 32.9192C69.6616 32.8961 69.567 32.8359 69.5011 32.7494C69.4352 32.663 69.4024 32.5559 69.4084 32.4474C69.4161 32.2571 69.4438 32.0681 69.4912 31.8836C69.8243 30.348 70.1631 28.8162 70.4962 27.2825C71.1724 24.1574 71.8474 21.0311 72.5211 17.9036C73.2914 14.2936 74.0642 10.6893 74.8396 7.09065C75.1426 5.68852 75.4794 4.2939 75.6751 2.8711C75.6982 2.69778 75.7464 2.52873 75.8182 2.36927C75.8797 2.20382 75.9892 2.06042 76.1326 1.95732C76.2761 1.85423 76.447 1.79611 76.6236 1.79037C76.8758 1.77909 77.1279 1.79037 77.3764 1.79037C78.3078 1.84113 79.2417 1.82606 80.171 1.74526C80.2672 1.734 80.3645 1.734 80.4608 1.74526C80.9802 1.81292 81.1552 2.02532 81.1609 2.5591C81.139 2.92773 81.0759 3.29275 80.9727 3.64735C80.3454 6.58317 79.7099 9.51901 79.0663 12.4548C79.0211 12.7198 78.9797 12.9867 78.9252 13.2931Z" fill="#00204A"/>
<path d="M37.1596 23.297H30.7846C30.6874 23.297 30.594 23.297 30.4911 23.297C29.8469 23.3294 29.521 23.5996 29.38 24.2294C29.3304 24.4596 29.2904 24.6918 29.2618 24.9258C29.1602 25.6055 29.1098 26.2918 29.1113 26.979C29.1211 27.2736 29.1653 27.566 29.2428 27.8505C29.3017 28.0996 29.4187 28.3313 29.5843 28.5268C29.7499 28.7222 29.9594 28.8758 30.1957 28.9751C30.613 29.1508 31.0555 29.2594 31.5069 29.2966C32.9387 29.4103 34.3788 29.3656 35.8008 29.1634C36.0732 29.1242 36.3405 29.0546 36.5974 28.956C36.9614 28.8302 37.293 28.6253 37.5681 28.3562C37.8433 28.087 38.0553 27.7603 38.1888 27.3995C38.2612 27.2187 38.3127 27.0285 38.3946 26.8496C38.4632 26.6855 38.5716 26.541 38.71 26.4291C38.8484 26.3171 39.0124 26.2413 39.1875 26.2083C39.3981 26.1613 39.614 26.1415 39.8297 26.1493C40.2109 26.1646 40.5768 26.1836 40.9504 26.2026C41.5792 26.2156 42.2083 26.1972 42.8352 26.1474C43.0706 26.1194 43.3092 26.1395 43.5366 26.2064C43.6426 26.2334 43.7361 26.296 43.8013 26.3837C43.8666 26.4713 43.8996 26.5787 43.8949 26.6879C43.9028 26.8836 43.8836 27.0796 43.8377 27.2701C43.5492 28.3745 43.0839 29.425 42.4598 30.3812C41.7501 31.4303 40.7378 32.2392 39.5572 32.7008C38.7886 33.0048 37.983 33.2057 37.1616 33.2983C34.974 33.5532 32.7697 33.6347 30.5692 33.5419C29.3506 33.4829 28.1433 33.2791 26.9729 32.9349C26.3448 32.7632 25.7568 32.4697 25.2424 32.071C24.2228 31.2604 23.7406 30.1834 23.691 28.8989C23.582 26.0498 23.9163 23.201 24.6821 20.4542C25.0901 18.9781 25.6041 17.5333 26.2201 16.1309C27.2836 13.6953 29.1475 12.1959 31.6918 11.5071C32.5318 11.3023 33.3883 11.1724 34.2513 11.1189C35.781 10.9943 37.3171 10.9676 38.8501 11.039C39.9314 11.0742 41.0056 11.2267 42.0539 11.4937C42.3197 11.5627 42.5818 11.6452 42.8391 11.7411C43.514 11.9724 44.116 12.3772 44.5844 12.9147C45.0528 13.4522 45.3711 14.1034 45.5072 14.8028C45.5937 15.1856 45.646 15.5753 45.6635 15.9673C45.7002 17.2043 45.6005 18.4416 45.3662 19.6569C45.2157 20.5265 45.0689 21.398 44.9202 22.2676C44.9202 22.3056 44.9202 22.3456 44.9031 22.3836C44.7621 23.0972 44.5219 23.3084 43.7748 23.3103C41.5717 23.3103 39.3685 23.3103 37.1654 23.3103L37.1596 23.297ZM35.0461 19.8339H38.286C38.6395 19.8291 38.9926 19.8062 39.3437 19.7654C39.571 19.7496 39.7849 19.652 39.9454 19.4907C40.106 19.3293 40.2024 19.1152 40.2166 18.8881C40.3011 18.2684 40.3253 17.642 40.289 17.0177C40.2357 15.9863 39.9384 15.64 38.9321 15.3793C37.1272 14.9093 35.311 14.9988 33.5004 15.3203C32.734 15.4445 32.0389 15.8429 31.545 16.4411C30.8856 17.2441 30.6112 18.1993 30.4816 19.204C30.4377 19.537 30.5921 19.7254 30.9199 19.7939C31.1122 19.8292 31.3077 19.8445 31.5031 19.8396C32.6885 19.8358 33.8663 19.8339 35.0461 19.8339Z" fill="#00204A"/>
<path d="M123.088 23.3074H116.816C116.644 23.3013 116.471 23.3077 116.3 23.3264C116.135 23.3375 115.978 23.4009 115.851 23.5076C115.723 23.6144 115.632 23.7593 115.588 23.9221C115.551 24.0335 115.521 24.1473 115.499 24.2627C115.393 24.9211 115.278 25.5777 115.192 26.238C115.131 26.7064 115.148 27.1821 115.245 27.6443C115.304 27.9645 115.446 28.2627 115.656 28.5079C115.865 28.7531 116.135 28.9365 116.437 29.0392C116.859 29.1813 117.295 29.2739 117.737 29.3151C119.084 29.5054 120.416 29.357 121.746 29.1705C122.147 29.1165 122.535 28.9915 122.894 28.8013C123.412 28.5298 123.813 28.0715 124.02 27.5149C124.078 27.3684 124.119 27.218 124.171 27.0696C124.253 26.8048 124.415 26.5735 124.633 26.409C124.852 26.2445 125.116 26.1553 125.387 26.1543C125.656 26.141 125.924 26.1467 126.192 26.1714C126.727 26.2114 127.265 26.2114 127.8 26.1714C128.183 26.1448 128.568 26.1448 128.95 26.1714C129.549 26.2133 129.749 26.4721 129.627 27.0601C129.296 28.6244 128.674 30.0383 127.559 31.1972C126.562 32.2207 125.291 32.9186 123.907 33.2029C123.438 33.304 122.962 33.3677 122.484 33.3932C120.57 33.5207 118.655 33.6387 116.736 33.5455C115.51 33.4932 114.294 33.2913 113.114 32.9441C112.217 32.6993 111.417 32.1738 110.825 31.4408C110.25 30.7436 109.936 29.8603 109.937 28.9479C109.917 27.3768 109.996 25.8061 110.175 24.2456C110.397 22.4535 110.787 20.6876 111.34 18.9724C111.744 17.7648 112.236 16.5899 112.811 15.4576C113.805 13.4633 115.391 12.2377 117.455 11.6231C118.327 11.3919 119.217 11.2379 120.115 11.1625C121.546 11.0113 122.986 10.9655 124.423 11.0255C125.458 11.0635 126.488 11.1908 127.501 11.4061C128.066 11.5223 128.612 11.7176 129.125 11.9865C129.583 12.2175 129.989 12.543 130.319 12.9425C130.648 13.342 130.893 13.807 131.038 14.3082C131.32 15.3308 131.415 16.3978 131.319 17.4557C131.215 19.1265 130.897 20.7612 130.576 22.4035C130.553 22.5386 130.518 22.6712 130.47 22.7993C130.424 22.9403 130.337 23.0636 130.221 23.1526C130.105 23.2417 129.965 23.2924 129.82 23.2979C129.634 23.3112 129.435 23.3131 129.244 23.3131H123.088V23.3074ZM121.195 19.8535H124.817C124.932 19.8535 125.047 19.8535 125.161 19.8535C125.677 19.8002 125.904 19.5585 125.958 19.0257C125.997 18.6356 126.038 18.2455 126.065 17.8534C126.088 17.5223 126.106 17.1874 126.101 16.8544C126.1 16.5669 126.014 16.2863 125.854 16.0501C125.694 15.8138 125.468 15.6331 125.205 15.5318C124.995 15.437 124.775 15.3668 124.55 15.3225C123.138 15.0313 121.688 14.9952 120.264 15.2159C119.808 15.2775 119.36 15.3885 118.926 15.547C118.121 15.8347 117.456 16.4299 117.069 17.2083C116.808 17.7553 116.633 18.341 116.55 18.9439C116.538 19.0609 116.538 19.1789 116.55 19.2959C116.553 19.4049 116.589 19.5103 116.653 19.5976C116.717 19.6848 116.806 19.7497 116.907 19.7831C117.108 19.8497 117.319 19.8762 117.529 19.8611L121.195 19.8535Z" fill="#00204A"/>
<path d="M18.4336 1.73841H29.4314C29.647 1.73274 29.8627 1.74218 30.077 1.76664C30.4871 1.82498 30.6599 2.05268 30.6105 2.45352C30.5892 2.60753 30.5516 2.7589 30.4985 2.90517C30.1622 3.89964 29.9331 4.92659 29.8149 5.96885C29.8016 6.06483 29.7997 6.15704 29.7769 6.25678C29.7478 6.46105 29.6517 6.65016 29.5035 6.79501C29.3553 6.93987 29.1632 7.03242 28.9567 7.05845C28.7827 7.08594 28.6069 7.10041 28.4307 7.10173C26.1958 7.10173 23.9609 7.10173 21.7261 7.10173C21.5115 7.10173 21.2951 7.10174 21.0805 7.12055C20.9223 7.12815 20.7697 7.18085 20.6411 7.27232C20.5124 7.36379 20.4131 7.49014 20.3552 7.63618C20.2704 7.83158 20.2067 8.03534 20.1653 8.24403C19.6134 10.826 19.0633 13.4085 18.5152 15.9917C18.0747 18.0617 17.6317 20.1318 17.1861 22.2018C16.5747 25.0284 15.9588 27.855 15.3386 30.6815C15.255 31.0579 15.1791 31.4343 15.0746 31.8107C14.8164 32.7346 14.4879 32.9868 13.529 33C13.0182 33 12.5113 32.9849 12.0005 32.9529C11.3758 32.9134 10.7473 32.9191 10.1207 32.9078C9.9308 32.9078 9.72763 32.9078 9.53206 32.9078C8.94154 32.8814 8.71368 32.6104 8.80862 32.0459C8.82761 31.9311 8.85229 31.8163 8.87697 31.7034C9.23901 30.0436 9.60358 28.3913 9.97068 26.7466C10.7074 23.3912 11.4498 20.0358 12.1752 16.6767C12.7296 14.1155 13.2594 11.5486 13.8043 8.98549C13.8822 8.62417 13.9828 8.26849 14.0702 7.91093C14.1019 7.79925 14.1254 7.6854 14.1404 7.57032C14.1496 7.52205 14.1487 7.47242 14.1377 7.42452C14.1266 7.37662 14.1058 7.33149 14.0764 7.29194C14.047 7.25238 14.0097 7.21926 13.9668 7.19463C13.9239 7.17 13.8764 7.15439 13.8271 7.14878C13.6329 7.1206 13.4367 7.10739 13.2404 7.10926C12.1429 7.09985 11.0454 7.09044 9.94789 7.09044C8.73267 7.09044 7.51744 7.10174 6.30222 7.10926C6.06723 7.12589 5.83108 7.10363 5.60346 7.0434C5.26928 6.93613 5.10978 6.73289 5.15155 6.39603C5.18466 6.18476 5.23482 5.97646 5.30155 5.77314C5.61133 4.81127 5.82939 3.82272 5.95285 2.82049C5.96684 2.70475 5.99227 2.59067 6.02879 2.47987C6.06732 2.27672 6.17628 2.0933 6.33681 1.96134C6.49735 1.82939 6.69937 1.75719 6.90793 1.75723C7.16237 1.73841 7.41871 1.74406 7.66745 1.74406H18.4317L18.4336 1.73841Z" fill="#00204A"/>
<path d="M141.332 33.579C139.783 33.5279 138.344 33.5373 136.914 33.3765C136.215 33.3174 135.533 33.1247 134.906 32.8088C133.543 32.0784 132.74 30.962 132.542 29.4028C132.457 28.5658 132.559 27.7203 132.84 26.9277C132.898 26.6977 133.035 26.4957 133.227 26.3573C133.418 26.2189 133.652 26.1528 133.888 26.1708H137.503C137.58 26.1699 137.658 26.1756 137.734 26.1879C137.883 26.1917 138.024 26.2527 138.129 26.3584C138.234 26.464 138.295 26.6062 138.299 26.7555C138.344 27.0659 138.378 27.3762 138.393 27.6884C138.416 28 138.466 28.3089 138.541 28.6118C138.59 28.8841 138.728 29.1324 138.932 29.3177C139.136 29.503 139.396 29.6148 139.67 29.6355C140.093 29.6948 140.519 29.7276 140.946 29.7339C141.449 29.7554 141.952 29.7383 142.452 29.6828C142.84 29.6563 143.229 29.6563 143.617 29.6828C144.199 29.7098 144.783 29.6557 145.352 29.522C146.498 29.2003 147.312 28.5191 147.66 27.3421C147.79 26.9131 147.847 26.4655 147.83 26.0176C147.796 25.2304 147.429 24.7384 146.68 24.5038C146.154 24.3629 145.613 24.2835 145.069 24.2673C144.061 24.2029 143.05 24.1821 142.043 24.1121C140.805 24.0232 139.561 23.9815 138.331 23.781C137.616 23.6855 136.919 23.4873 136.261 23.1925C135.813 22.9971 135.425 22.6843 135.139 22.2869C134.852 21.8895 134.677 21.422 134.631 20.9331C134.544 20.1141 134.564 19.287 134.691 18.4732C134.832 17.3273 135.14 16.2084 135.604 15.1524C136.169 13.8675 137.01 12.8211 138.263 12.1456C138.923 11.8114 139.632 11.5858 140.363 11.4776C142.526 11.0893 144.724 10.937 146.919 11.0235C148.336 11.0779 149.747 11.2341 151.142 11.4909C151.756 11.5974 152.344 11.8264 152.869 12.1645C153.848 12.8098 154.341 13.7483 154.476 14.8931C154.526 15.3965 154.526 15.9035 154.476 16.4069C154.46 16.5423 154.432 16.676 154.391 16.8062C154.349 16.9683 154.258 17.1134 154.131 17.2214C154.004 17.3295 153.846 17.3953 153.68 17.4098C153.545 17.4265 153.409 17.4328 153.274 17.4287L150.242 17.4439C150.068 17.4505 149.893 17.443 149.719 17.4211C149.522 17.4078 149.337 17.3204 149.202 17.1763C149.066 17.0321 148.989 16.8419 148.987 16.6434C148.971 16.4482 148.971 16.252 148.987 16.0568C149.002 15.8905 148.967 15.7236 148.887 15.5773C148.807 15.431 148.685 15.3121 148.537 15.2356C148.355 15.1208 148.153 15.043 147.941 15.0067C146.752 14.8174 145.559 14.6793 144.347 14.8174C143.709 14.8856 143.078 14.9821 142.448 15.0994C142.122 15.158 141.811 15.2818 141.533 15.4635C141.255 15.6452 141.017 15.8811 140.832 16.1571C140.38 16.791 140.079 17.4817 140.118 18.2783C140.15 18.9804 140.472 19.3947 141.151 19.5934C141.281 19.6334 141.414 19.6594 141.548 19.671C142.632 19.7581 143.716 19.8451 144.802 19.917C146.082 20.0022 147.361 20.0608 148.641 20.1535C149.378 20.2032 150.105 20.3547 150.801 20.6039C151.112 20.7159 151.411 20.8592 151.693 21.0315C152.333 21.4179 152.818 22.017 153.065 22.7251C153.218 23.1504 153.303 23.5975 153.317 24.0497C153.362 25.6551 153.085 27.2532 152.5 28.7481C151.733 30.7179 150.327 32.0462 148.36 32.7691C147.609 33.036 146.829 33.2126 146.036 33.2951C144.669 33.4547 143.294 33.5399 141.917 33.5506C141.684 33.5506 141.453 33.5733 141.332 33.579Z" fill="#00204A"/>
<path d="M60.9023 11.0085C61.5598 11.0085 62.2174 10.9894 62.873 11.0085C64.0469 11.0432 65.2107 11.2356 66.3322 11.5805C66.7506 11.7077 67.1535 11.8803 67.5335 12.0953C67.9793 12.3412 68.3655 12.6803 68.6653 13.089C68.965 13.4976 69.171 13.966 69.2689 14.4614C69.3578 14.8455 69.4043 15.238 69.4077 15.6321C69.4077 16.2212 69.4077 16.8123 69.4077 17.4033C69.4067 17.6617 69.3677 17.9186 69.292 18.166C69.2469 18.348 69.1505 18.5136 69.014 18.6436C68.8774 18.7735 68.7064 18.8625 68.5207 18.9C68.2325 18.9766 67.936 19.0182 67.6376 19.024H64.9497C64.8706 19.024 64.7915 19.024 64.7125 19.0144C64.2786 18.9763 63.9296 18.8047 63.893 18.2518C63.8756 17.9963 63.8351 17.7446 63.812 17.4891C63.7966 17.3137 63.812 17.1345 63.7811 16.9591C63.6616 16.1144 63.249 15.6569 62.4082 15.4547C61.4451 15.2052 60.4516 15.0884 59.4561 15.1077C58.7 15.1369 57.9511 15.2651 57.229 15.4891C56.7001 15.6386 56.2137 15.9081 55.8087 16.2761C55.4036 16.6442 55.0911 17.1007 54.8959 17.6093C54.7582 17.936 54.6435 18.2717 54.5526 18.614C53.9742 20.8219 53.442 23.0393 53.0814 25.2873C52.9607 25.906 52.9032 26.5352 52.9098 27.1653C52.9484 28.1453 53.388 28.7459 54.3174 29.0719C54.4477 29.1205 54.5818 29.1581 54.7185 29.1844C55.577 29.3571 56.4553 29.4142 57.3293 29.3541C57.9232 29.3007 58.519 29.2855 59.1129 29.1978C59.6099 29.1431 60.0853 28.9671 60.4963 28.6855C60.9073 28.4039 61.241 28.0256 61.4673 27.5848C61.6469 27.234 61.7897 26.8661 61.8934 26.4865C61.9995 26.1281 62.1171 25.7735 62.2501 25.4245C62.3056 25.2542 62.4101 25.1036 62.5509 24.9911C62.6916 24.8787 62.8626 24.8093 63.0426 24.7915C63.2575 24.7536 63.4745 24.7288 63.6925 24.7172C64.7665 24.7172 65.8424 24.7172 66.9164 24.7172C67.0956 24.7077 67.275 24.7323 67.4448 24.7896C67.5423 24.8148 67.6279 24.8731 67.6864 24.9543C67.7449 25.0355 67.7727 25.1345 67.7649 25.2339C67.7578 25.3906 67.7273 25.5455 67.6742 25.6934C67.5637 26.0506 67.4621 26.4103 67.3696 26.7725C67.1659 27.5743 66.873 28.3512 66.4961 29.0891C65.4201 31.1769 63.7233 32.4963 61.4384 33.093C60.6072 33.2926 59.7589 33.4145 58.9047 33.4572C57.4739 33.5506 56.0432 33.5983 54.6105 33.5716C53.3744 33.5496 52.145 33.3865 50.9469 33.0854C50.4627 32.9724 49.995 32.7994 49.5547 32.5706C49.0471 32.3127 48.6043 31.9458 48.2587 31.4968C47.913 31.0478 47.6733 30.5281 47.557 29.9757C47.4944 29.7256 47.4556 29.4703 47.4413 29.213C47.3693 27.8168 47.4131 26.4171 47.5725 25.028C47.8364 22.899 48.329 20.8038 49.0418 18.778C49.3734 17.8298 49.7417 16.8962 50.1466 15.9772C50.5534 15.0106 51.1609 14.1393 51.9299 13.4197C52.6989 12.7001 53.6121 12.1482 54.6105 11.7997C55.6044 11.4505 56.6358 11.2157 57.6841 11.1C58.7562 10.9722 59.8283 11.0123 60.9023 11.0085Z" fill="#00204A"/>
<path d="M170.125 11.3122H173.213C173.426 11.2989 173.639 11.3219 173.845 11.3804C173.903 11.3907 173.958 11.4131 174.007 11.4461C174.056 11.479 174.098 11.5219 174.13 11.5719C174.161 11.6219 174.183 11.678 174.192 11.7366C174.201 11.7953 174.198 11.8552 174.183 11.9127C174.179 12.0101 174.156 12.1058 174.117 12.1949C173.897 12.6382 173.833 13.127 173.702 13.5967C173.617 13.8979 173.542 14.201 173.442 14.4965C173.213 15.1671 172.944 15.3736 172.25 15.4077C171.862 15.4267 171.473 15.4248 171.086 15.4267C169.668 15.4267 168.25 15.4267 166.833 15.4267C166.484 15.4325 166.135 15.4623 165.79 15.5157C165.595 15.533 165.409 15.607 165.254 15.7287C165.1 15.8504 164.984 16.0147 164.921 16.2014C164.837 16.4199 164.77 16.6448 164.721 16.8739C164.333 18.7278 163.949 20.583 163.569 22.4394C163.23 24.1045 162.907 25.7715 162.568 27.4366C162.514 27.6854 162.489 27.9397 162.493 28.1944C162.48 28.4123 162.543 28.6279 162.672 28.8037C162.8 28.9795 162.986 29.1044 163.196 29.1567C163.639 29.3054 164.108 29.3621 164.573 29.3234C165.662 29.2438 166.418 28.6831 166.871 27.6886C167.03 27.3108 167.168 26.9244 167.285 26.5312C167.401 26.1788 167.514 25.8246 167.65 25.4798C167.718 25.2844 167.84 25.1127 168.002 24.9849C168.164 24.857 168.359 24.7783 168.564 24.7581C168.755 24.7273 168.948 24.7076 169.141 24.6993C169.918 24.688 170.694 24.6804 171.471 24.6842C172.248 24.688 172.432 24.9172 172.263 25.6617C171.915 27.1885 171.511 28.6926 170.736 30.0773C170.339 30.8326 169.787 31.4938 169.116 32.0166C168.445 32.5393 167.67 32.9115 166.845 33.1082C165.528 33.4531 164.17 33.6099 162.811 33.5742C161.685 33.5364 160.566 33.377 159.474 33.0988C159.154 33.016 158.844 32.8945 158.553 32.7369C158.12 32.5124 157.745 32.1891 157.458 31.7928C157.171 31.3965 156.98 30.9381 156.9 30.4543C156.791 29.8361 156.807 29.2021 156.947 28.5903C157.416 26.2363 157.893 23.8823 158.378 21.5283C158.713 19.9029 159.064 18.2814 159.409 16.6561C159.44 16.5235 159.46 16.3885 159.469 16.2526C159.488 15.6843 159.237 15.4267 158.666 15.4172C158.471 15.4147 158.277 15.4292 158.085 15.4608C157.891 15.4835 157.696 15.4667 157.509 15.4115C157.373 15.3892 157.25 15.3163 157.164 15.2073C157.079 15.0983 157.037 14.961 157.046 14.8224C157.046 14.6858 157.069 14.5501 157.112 14.4208C157.257 13.9541 157.349 13.4724 157.385 12.9849C157.42 12.6552 157.513 12.3345 157.66 12.0377C157.756 11.8108 157.917 11.6177 158.122 11.4828C158.327 11.3479 158.567 11.2774 158.812 11.28C159.083 11.28 159.356 11.3027 159.627 11.3217C160.242 11.3614 160.528 11.1796 160.687 10.5639C160.815 10.0733 160.896 9.57131 160.988 9.07121C161.081 8.57111 161.167 8.03313 161.259 7.51408C161.288 7.33631 161.331 7.16093 161.385 6.98936C161.436 6.81913 161.538 6.66879 161.676 6.55867C161.815 6.44856 161.984 6.38399 162.16 6.3737C162.275 6.36234 162.391 6.3737 162.508 6.3737H165.946C166.023 6.3737 166.102 6.3737 166.179 6.3737C166.666 6.41348 166.882 6.66922 166.786 7.16174C166.598 8.13921 166.388 9.11289 166.185 10.0866C166.147 10.259 166.089 10.4275 166.062 10.5999C166.002 11.0015 166.177 11.2459 166.574 11.3027C166.747 11.3227 166.922 11.3303 167.097 11.3255H170.127L170.125 11.3122Z" fill="#00204A"/>
<path d="M109.395 1.73682H111.456C111.495 1.73715 111.534 1.74029 111.572 1.74624C112.135 1.8122 112.311 2.03836 112.232 2.61131C112.174 3.03347 112.093 3.45376 112.002 3.87027C111.902 4.32636 111.781 4.77492 111.664 5.22724C111.535 5.73234 111.413 5.84354 110.915 5.83977C110.294 5.83977 109.678 5.8963 109.061 5.93777C108.656 5.96887 108.256 6.04795 107.869 6.17335C107.544 6.27145 107.242 6.43699 106.984 6.65933C106.725 6.88167 106.516 7.15589 106.37 7.46436C106.193 7.832 106.049 8.21487 105.941 8.60836C105.787 9.13042 105.654 9.65813 105.511 10.184C105.496 10.2386 105.482 10.2951 105.47 10.3536C105.382 10.87 105.54 11.066 106.076 11.098C106.229 11.1075 106.385 11.098 106.54 11.098H109.383C109.518 11.098 109.653 11.098 109.79 11.098C110.352 11.1301 110.54 11.3091 110.457 11.867C110.366 12.6199 110.207 13.363 109.983 14.0871C109.915 14.3531 109.768 14.5921 109.562 14.7724C109.356 14.9528 109.1 15.066 108.829 15.0973C108.619 15.1334 108.408 15.1554 108.195 15.1633C107.537 15.1765 106.883 15.1859 106.222 15.1802C105.874 15.1874 105.528 15.2145 105.184 15.2613C104.979 15.2741 104.783 15.3509 104.624 15.481C104.466 15.6112 104.351 15.788 104.297 15.9869C104.159 16.4525 104.051 16.9265 103.973 17.4061C103.529 19.5753 103.103 21.7408 102.661 23.9157C102.258 25.8551 101.831 27.7888 101.411 29.7243C101.242 30.5027 101.066 31.2792 100.894 32.0576C100.875 32.133 100.858 32.2083 100.839 32.2837C100.71 32.7662 100.464 32.9622 99.9771 32.9924C99.8804 32.999 99.7834 32.999 99.6867 32.9924C98.6053 32.9339 97.522 32.9716 96.4406 32.9924C96.2476 33.0093 96.0531 32.9979 95.8634 32.9584C95.5785 32.8812 95.4604 32.7568 95.4604 32.4703C95.4622 32.2569 95.4848 32.0442 95.5279 31.8352C96.3151 28.1915 97.1047 24.5477 97.8968 20.904C98.2254 19.3862 98.554 17.8678 98.8826 16.3488C98.9202 16.1984 98.9459 16.0452 98.9595 15.8908C98.982 15.4215 98.7833 15.1991 98.3241 15.1746C98.1892 15.1746 98.0543 15.184 97.9193 15.184C97.5314 15.184 97.1434 15.1972 96.7592 15.184C96.375 15.1708 96.1726 14.9277 96.197 14.5244C96.2101 14.4285 96.2289 14.3335 96.2532 14.2398C96.4219 13.4407 96.5868 12.6416 96.7555 11.8444C96.8661 11.3261 97.0554 11.1489 97.5801 11.115C97.9868 11.0905 98.3935 11.1037 98.7983 11.0886C98.991 11.0783 99.1827 11.0537 99.3718 11.0151C99.5258 10.99 99.6699 10.9222 99.7877 10.8193C99.9056 10.7164 99.9926 10.5826 100.039 10.4327C100.122 10.1944 100.191 9.95152 100.247 9.70525C100.535 8.37587 100.921 7.06993 101.401 5.7983C101.677 5.0263 102.114 4.32275 102.683 3.73521C103.252 3.14768 103.94 2.68985 104.7 2.39268C105.149 2.21134 105.614 2.07253 106.089 1.97806C106.903 1.80418 107.735 1.72951 108.566 1.75566C108.842 1.77922 109.12 1.77291 109.395 1.73682Z" fill="#00204A"/>
<path d="M173.251 4.63158H172.251V0.758344H170.724V0H174.776V0.758344H173.247L173.251 4.63158Z" fill="#00204A"/>
<path d="M179.255 4.63158H178.402L176.828 0.746969H176.808L176.887 4.63158H175.934V0H177.464L178.813 3.43908H178.839L180.161 0H181.724V4.63158H180.771L180.85 0.728009H180.818L179.255 4.63158Z" fill="#00204A"/>
<path d="M2.52554 40.83L1.92917 41.9823H0.776367L3.93374 35.8945H5.57448L6.31068 41.9823H5.1807L5.03803 40.83H2.52554ZM4.60716 36.7894H4.58718L2.95499 39.947H4.95956L4.60716 36.7894Z" fill="#00204A"/>
<path d="M10.1828 38.7903C10.1987 38.7255 10.2076 38.6593 10.2093 38.5927C10.2093 38.4407 10.1547 38.3541 10.0532 38.3207C9.85872 38.2787 9.65935 38.2618 9.4603 38.2705C9.20298 38.2581 8.94539 38.2889 8.69883 38.3617C8.54279 38.4225 8.43356 38.5821 8.37739 38.8405C8.36184 38.9027 8.35295 38.9664 8.35086 39.0304C8.34801 39.0821 8.36445 39.133 8.39714 39.1738C8.42984 39.2146 8.47659 39.2425 8.52875 39.2523C8.78851 39.3006 9.05229 39.3255 9.31674 39.3268H9.54456C9.81607 39.3374 10.0283 39.3526 10.1843 39.3678C10.3344 39.3837 10.4812 39.4216 10.6197 39.4803C10.7517 39.5342 10.8638 39.6259 10.9411 39.7432C11.0271 39.8867 11.0683 40.0515 11.0597 40.2174C11.0572 40.3786 11.0373 40.539 11.0004 40.6962C10.9522 40.9432 10.8454 41.1759 10.6883 41.3755C10.5499 41.5449 10.3717 41.6794 10.1687 41.7676C9.95584 41.858 9.73015 41.9164 9.49931 41.9409C9.2153 41.9703 8.92982 41.984 8.64422 41.9819C8.31185 41.9819 8.04971 41.9819 7.86402 41.9652C7.68778 41.9575 7.51369 41.9242 7.34753 41.8664C7.20228 41.8172 7.0774 41.7233 6.99176 41.5989C6.90047 41.4484 6.85653 41.2751 6.86537 41.1004C6.86868 40.9223 6.89117 40.7451 6.93247 40.5715H7.99821C7.97917 40.6754 7.96821 40.7806 7.96545 40.8861C7.95582 40.9494 7.96693 41.014 7.99719 41.0708C8.02744 41.1275 8.07531 41.1735 8.13397 41.2023C8.35147 41.2621 8.57779 41.2858 8.80337 41.2722C9.07898 41.2879 9.35527 41.256 9.61946 41.1779C9.7755 41.1141 9.88004 40.9545 9.93154 40.6962C9.9495 40.6203 9.96046 40.5429 9.9643 40.4651C9.96387 40.4051 9.94338 40.3468 9.90595 40.2991C9.86851 40.2514 9.81614 40.2169 9.75677 40.2007C9.49702 40.1298 9.22735 40.0995 8.95785 40.111C8.29781 40.0989 7.8453 40.0426 7.60344 39.9408C7.48545 39.8919 7.38657 39.8076 7.32118 39.7002C7.25579 39.5928 7.22731 39.4678 7.23987 39.3435C7.24702 39.1487 7.27526 38.9551 7.32413 38.766C7.36834 38.5204 7.46976 38.288 7.6206 38.0866C7.74838 37.9239 7.91943 37.7983 8.11524 37.7234C8.31547 37.6483 8.52561 37.6012 8.7394 37.5836C8.96097 37.5638 9.2512 37.5547 9.60697 37.5547C9.866 37.5547 10.0751 37.5547 10.2577 37.576C10.4294 37.5887 10.5988 37.623 10.7617 37.6778C10.9141 37.727 11.0482 37.819 11.1471 37.9422C11.2493 38.0842 11.2999 38.2554 11.2906 38.4286C11.2895 38.5477 11.2754 38.6665 11.2485 38.7827L10.1828 38.7903Z" fill="#00204A"/>
<path d="M12.2709 41.9823H11.2915L12.1621 37.7203H13.1301L12.2709 41.9823ZM13.3348 36.7625H12.3554L12.5272 35.8945H13.5052L13.3348 36.7625Z" fill="#00204A"/>
<path d="M16.0302 41.384H16.0089C15.9477 41.5137 15.862 41.6264 15.7581 41.7139C15.6619 41.7962 15.5528 41.8566 15.4366 41.8917C15.3266 41.9267 15.2141 41.9501 15.1004 41.9616C14.991 41.9723 14.8656 41.9784 14.7202 41.9784C14.4079 41.9989 14.0958 41.9354 13.809 41.7929C13.6063 41.6698 13.5049 41.4311 13.5049 41.08C13.5063 40.9188 13.5233 40.7582 13.5556 40.6012C13.6516 40.1016 13.8295 39.7555 14.0892 39.563C14.3489 39.3704 14.7251 39.2742 15.2178 39.2742C15.4363 39.2641 15.6551 39.286 15.8688 39.3395C15.9623 39.3677 16.0489 39.4197 16.1222 39.4915C16.1928 39.5661 16.2433 39.6621 16.2677 39.7682H16.297L16.3984 39.2073C16.4332 39.0422 16.4547 38.8737 16.4624 38.7041C16.4682 38.6366 16.4574 38.5686 16.4313 38.5077C16.4051 38.4468 16.3646 38.3953 16.3143 38.3591C16.1421 38.2766 15.955 38.2422 15.7687 38.2587C15.5752 38.2476 15.3819 38.286 15.2031 38.3712C15.1292 38.4247 15.0668 38.4964 15.0206 38.5812C14.9744 38.6659 14.9456 38.7615 14.9363 38.8607H14.0238C14.0678 38.6006 14.1586 38.3537 14.2906 38.1356C14.3983 37.9647 14.5431 37.8285 14.7108 37.7404C14.8749 37.6578 15.0498 37.6065 15.2284 37.5884C15.4501 37.5639 15.6728 37.5528 15.8955 37.555C16.4291 37.555 16.8119 37.6188 17.0387 37.748C17.2655 37.8772 17.3789 38.1402 17.3789 38.5354C17.3751 38.7661 17.3509 38.9958 17.3069 39.221L16.7999 41.9328H15.8888L16.0302 41.384ZM14.7602 40.0813C14.6175 40.1497 14.5201 40.3215 14.4667 40.5966C14.4492 40.686 14.4393 40.7771 14.4374 40.8687C14.4292 40.935 14.4404 41.0025 14.4694 41.0608C14.4983 41.1191 14.5433 41.1648 14.5975 41.191C14.7855 41.2517 14.9812 41.2764 15.1764 41.2639C15.4009 41.2772 15.6252 41.2352 15.8341 41.1408C15.9835 41.0587 16.0849 40.8778 16.1383 40.5966C16.1517 40.5344 16.1588 40.4707 16.1596 40.4066C16.1687 40.3331 16.1559 40.2583 16.1233 40.194C16.0906 40.1298 16.04 40.08 15.9795 40.0524C15.5775 39.9442 15.1579 39.9541 14.7602 40.0813Z" fill="#00204A"/>
<path d="M18.5985 37.6073C18.7462 37.6147 18.892 37.5728 19.012 37.4886C19.1362 37.3666 19.2166 37.2087 19.2412 37.0385H18.8068L19.0504 35.8945H20.1466L19.9287 36.8947C19.8938 37.0771 19.8472 37.2572 19.7892 37.4339C19.7452 37.5602 19.6808 37.6789 19.5985 37.7855C19.5092 37.8926 19.3918 37.9741 19.2588 38.0215C19.0808 38.0845 18.892 38.1137 18.7027 38.1074H18.4863L18.5985 37.6073Z" fill="#00204A"/>
<path d="M22.5057 38.7903C22.5192 38.7255 22.5265 38.6593 22.5275 38.5927C22.5275 38.4407 22.4811 38.3541 22.3911 38.3207C21.9983 38.242 21.595 38.256 21.2073 38.3617C21.0709 38.4225 20.9754 38.5821 20.9263 38.8405C20.9131 38.9028 20.9058 38.9664 20.9045 39.0304C20.902 39.0821 20.9164 39.133 20.9449 39.1738C20.9735 39.2146 21.0144 39.2425 21.06 39.2523C21.2848 39.3002 21.513 39.3251 21.7419 39.3268H21.9424C22.1797 39.3374 22.3652 39.3526 22.5002 39.3678C22.6319 39.3835 22.7607 39.4214 22.8821 39.4803C22.9972 39.5347 23.0951 39.6263 23.1631 39.7432C23.2382 39.8867 23.2742 40.0515 23.2667 40.2174C23.2646 40.3786 23.2472 40.539 23.2149 40.6962C23.1728 40.9432 23.0794 41.1759 22.9421 41.3755C22.8209 41.5453 22.6646 41.6798 22.4866 41.7676C22.3011 41.8582 22.1042 41.9166 21.9028 41.9409C21.6546 41.9703 21.4051 41.984 21.1554 41.9819C20.8649 41.9819 20.6344 41.9819 20.4667 41.9652C20.3127 41.9573 20.1605 41.924 20.0152 41.8664C19.8889 41.8168 19.7803 41.7229 19.7057 41.5989C19.6247 41.4489 19.5858 41.2753 19.5938 41.1004C19.5972 40.9223 19.6174 40.745 19.6538 40.5715H20.5853C20.5687 40.6755 20.5591 40.7806 20.5567 40.8861C20.5483 40.9494 20.558 41.014 20.5844 41.0708C20.6109 41.1275 20.6527 41.1735 20.704 41.2023C20.8941 41.2622 21.0919 41.2859 21.2891 41.2722C21.53 41.2879 21.7715 41.256 22.0024 41.1779C22.1388 41.1141 22.2302 40.9545 22.2752 40.6962C22.2918 40.6204 22.3019 40.543 22.3052 40.4652C22.3048 40.4051 22.2869 40.3468 22.2542 40.2991C22.2215 40.2514 22.1757 40.2169 22.1238 40.2007C21.8968 40.1298 21.6611 40.0995 21.4255 40.111C20.8486 40.0989 20.4531 40.0426 20.2417 39.9408C20.1383 39.8922 20.0516 39.808 19.9941 39.7005C19.9367 39.5931 19.9116 39.468 19.9225 39.3435C19.9287 39.1486 19.9538 38.9549 19.9975 38.766C20.0355 38.5202 20.1243 38.2877 20.2567 38.0866C20.368 37.9235 20.5176 37.7978 20.689 37.7234C20.864 37.6482 21.0477 37.6011 21.2346 37.5836C21.4296 37.5638 21.6819 37.5547 21.9929 37.5547C22.2206 37.5547 22.4102 37.5547 22.563 37.576C22.7131 37.5887 22.8612 37.623 23.0035 37.6778C23.1367 37.727 23.2539 37.819 23.3404 37.9422C23.4298 38.0842 23.4739 38.2554 23.4659 38.4286C23.4649 38.5477 23.4525 38.6665 23.429 38.7827L22.5057 38.7903Z" fill="#00204A"/>
<path d="M28.0529 40.9841H30.6621L30.4685 41.9823H26.7881L27.9719 35.8945H29.0458L28.0529 40.9841Z" fill="#00204A"/>
<path d="M33.7433 41.3841H33.7206C33.6598 41.5137 33.5745 41.6264 33.4708 41.7139C33.3746 41.7962 33.2653 41.8566 33.149 41.8918C33.0389 41.9267 32.9263 41.9501 32.8125 41.9617C32.703 41.9723 32.5761 41.9784 32.4319 41.9784C32.1189 41.9988 31.806 41.9353 31.5185 41.793C31.3155 41.6698 31.2153 41.4312 31.2153 41.08C31.2169 40.9189 31.2335 40.7584 31.2647 40.6012C31.3627 40.1016 31.5407 39.7555 31.7989 39.563C32.0571 39.3704 32.4337 39.2742 32.9287 39.2742C33.1474 39.2641 33.3665 39.286 33.5803 39.3395C33.6739 39.3677 33.7607 39.4197 33.8341 39.4915C33.9047 39.5661 33.9552 39.6621 33.9796 39.7682H34.0077L34.1092 39.2073C34.145 39.0423 34.1669 38.8738 34.1746 38.7041C34.1804 38.6366 34.1696 38.5687 34.1434 38.5077C34.1172 38.4468 34.0767 38.3953 34.0264 38.3591C33.8535 38.2765 33.6658 38.2421 33.4788 38.2588C33.2855 38.2477 33.0925 38.2861 32.914 38.3712C32.84 38.4247 32.7775 38.4965 32.7313 38.5812C32.685 38.666 32.6562 38.7615 32.6469 38.8607H31.7308C31.7742 38.6004 31.8652 38.3533 31.9979 38.1356C32.1054 37.9644 32.2504 37.8281 32.4185 37.7404C32.5828 37.6578 32.7578 37.6065 32.9367 37.5884C33.1586 37.5639 33.3814 37.5528 33.6044 37.555C34.1385 37.555 34.5218 37.6188 34.7488 37.748C34.9758 37.8772 35.0893 38.1402 35.0893 38.5354C35.0855 38.7661 35.0613 38.9958 35.0172 39.221L34.5098 41.9328H33.6004L33.7433 41.3841ZM32.4719 40.0813C32.3291 40.1497 32.2316 40.3215 32.1782 40.5967C32.1599 40.6859 32.1501 40.7771 32.1488 40.8687C32.1406 40.935 32.1519 41.0026 32.1808 41.0609C32.2098 41.1191 32.2549 41.1649 32.309 41.191C32.4973 41.2518 32.6932 41.2764 32.8886 41.264C33.1133 41.2772 33.3378 41.2352 33.547 41.1408C33.6965 41.0588 33.798 40.8779 33.8514 40.5967C33.8649 40.5344 33.872 40.4707 33.8728 40.4066C33.8819 40.3332 33.8691 40.2583 33.8364 40.1941C33.8037 40.1299 33.7531 40.08 33.6925 40.0525C33.2901 39.9442 32.8701 39.9541 32.4719 40.0813Z" fill="#00204A"/>
<path d="M37.5049 37.6041L37.3589 38.1806H37.3998C37.5224 37.9663 37.7051 37.7971 37.9227 37.6963C38.1488 37.5991 38.3913 37.551 38.6355 37.5549C38.9525 37.5549 39.1774 37.6241 39.3133 37.764C39.384 37.8441 39.4383 37.9387 39.473 38.0418C39.5077 38.1449 39.5219 38.2544 39.5148 38.3635C39.5112 38.5542 39.4902 38.7442 39.452 38.9307L39.3804 39.2812H38.4456L38.4924 39.0552C38.5195 38.9352 38.5356 38.8127 38.5406 38.6894C38.5442 38.643 38.5379 38.5964 38.5219 38.553C38.506 38.5096 38.4809 38.4705 38.4485 38.4388C38.3541 38.3733 38.2412 38.344 38.1286 38.3558C38.0113 38.3464 37.8935 38.3625 37.7824 38.4033C37.6713 38.444 37.5694 38.5084 37.483 38.5925C37.3234 38.7869 37.2218 39.0264 37.1909 39.2812L36.6417 41.9821H35.6426L36.5307 37.6041H37.5049Z" fill="#00204A"/>
<path d="M39.9349 43.6383C40.48 43.6519 41.0255 43.6318 41.568 43.578C41.8166 43.5305 42.0511 43.43 42.2542 43.2838C42.4484 43.1331 42.6048 42.9421 42.7117 42.7249C42.8547 42.4265 42.9572 42.1116 43.0166 41.7879L43.9438 37.6062H42.9008L42.8016 38.2372H42.7681C42.7478 38.1246 42.7012 38.018 42.6316 37.9254C42.5621 37.8329 42.4716 37.7569 42.367 37.7032C42.1133 37.5955 41.8374 37.5452 41.5604 37.5562C41.2324 37.5458 40.9058 37.6014 40.6012 37.7194C40.3582 37.8178 40.1475 37.978 39.9913 38.1828C39.8395 38.3861 39.7236 38.6122 39.6482 38.852C39.5689 39.1006 39.4835 39.4227 39.3966 39.8228C39.3153 40.1414 39.2678 40.4672 39.2548 40.7951C39.2435 40.9397 39.265 41.085 39.3176 41.2209C39.3703 41.3567 39.4529 41.48 39.5598 41.582C39.7631 41.7536 40.1148 41.8399 40.615 41.8409C40.9037 41.8447 41.1908 41.7989 41.4628 41.7056C41.7284 41.6036 41.9551 41.4254 42.1124 41.1952H42.1368L41.963 41.9924C41.9281 42.1475 41.877 42.2988 41.8105 42.444C41.7619 42.5492 41.6863 42.6408 41.5909 42.7102C41.4854 42.78 41.365 42.8262 41.2387 42.8455C41.0559 42.8763 40.8706 42.8901 40.6851 42.8867C40.5007 42.8973 40.3159 42.8712 40.1423 42.8102C40.0868 42.7802 40.042 42.7349 40.0135 42.6801C39.9849 42.6254 39.974 42.5636 39.9822 42.5028C39.9843 42.4084 39.9981 42.3146 40.0233 42.2233H39.0474C38.9963 42.3977 38.9681 42.5776 38.9635 42.7587C38.9573 42.9187 38.9963 43.0774 39.0764 43.2176C39.1516 43.3381 39.2626 43.434 39.3951 43.4927C39.5461 43.5619 39.7078 43.6066 39.8739 43.6251M42.4555 39.5742C42.3884 39.889 42.3305 40.1273 42.2817 40.2891C42.2451 40.4427 42.1812 40.5891 42.0926 40.7215C41.9981 40.8447 41.8689 40.9391 41.7205 40.9937C41.5247 41.0599 41.318 41.0908 41.1106 41.0848C40.9055 41.1032 40.7002 41.0511 40.5311 40.9378C40.4731 40.8794 40.4285 40.81 40.4001 40.734C40.3718 40.658 40.3603 40.5771 40.3664 40.4965C40.3891 40.1921 40.4402 39.8904 40.5189 39.5948V39.586C40.5636 39.3662 40.6269 39.1502 40.708 38.9403C40.7593 38.8039 40.8369 38.6781 40.9367 38.5696C41.0219 38.4816 41.1306 38.418 41.2508 38.3857C41.4062 38.3473 41.5663 38.3299 41.7266 38.3343C42.0407 38.3343 42.2603 38.3813 42.3884 38.4814C42.4554 38.5389 42.5074 38.6108 42.5402 38.6913C42.5731 38.7718 42.5858 38.8586 42.5775 38.9447C42.564 39.1606 42.5293 39.3749 42.4738 39.5845L42.4555 39.5742Z" fill="#00204A"/>
<path d="M48.0527 40.5541C47.9995 40.8334 47.8936 41.1007 47.7404 41.3425C47.6167 41.527 47.444 41.6753 47.2406 41.7717C47.0341 41.8637 46.8137 41.9223 46.5878 41.9452C46.281 41.9725 45.9729 41.9847 45.6648 41.9817C45.0318 41.9817 44.5867 41.898 44.3296 41.7306C44.0735 41.5616 43.9438 41.274 43.9438 40.8509C43.9596 40.4916 44.0119 40.1347 44.1 39.7855C44.17 39.4312 44.2692 39.0831 44.3967 38.7444C44.4912 38.4946 44.6386 38.2669 44.8293 38.0763C45.0261 37.89 45.2678 37.755 45.5321 37.6836C45.8884 37.5903 46.2565 37.5472 46.6253 37.5557C47.2812 37.5557 47.7357 37.6334 47.9887 37.7917C48.2417 37.9499 48.3713 38.233 48.3713 38.6455C48.3497 39.0909 48.2843 39.5333 48.1761 39.9666H45.1214C45.0615 40.208 45.0223 40.4539 45.0042 40.7017C44.9965 40.7751 45.0087 40.8492 45.0397 40.9165C45.0707 40.9839 45.1193 41.0421 45.1807 41.0853C45.3849 41.1764 45.6097 41.2147 45.8335 41.1964C46.1048 41.2107 46.3765 41.1756 46.6347 41.0929C46.8002 41.0244 46.9189 40.8478 46.9861 40.5617L48.0527 40.5541ZM47.2562 39.2984C47.2984 39.1194 47.3241 38.937 47.3328 38.7536C47.3433 38.6861 47.3318 38.6172 47.2998 38.5565C47.2679 38.4959 47.2171 38.4466 47.1547 38.4157C46.9297 38.352 46.6951 38.3268 46.4613 38.3411C46.274 38.3371 46.0868 38.3508 45.9022 38.3822C45.7868 38.4024 45.6789 38.4523 45.5899 38.5268C45.508 38.6037 45.4455 38.698 45.4072 38.8023C45.3504 38.9644 45.3056 39.1301 45.2729 39.2984H47.2562Z" fill="#00204A"/>
<path d="M51.6948 38.7804C51.7095 38.7153 51.7178 38.6489 51.7197 38.5822C51.7197 38.4298 51.6667 38.3429 51.5637 38.3093C51.1142 38.2304 50.6528 38.2444 50.2093 38.3505C50.0532 38.4115 49.944 38.5715 49.8878 38.8307C49.8727 38.8932 49.8643 38.9571 49.8629 39.0213C49.8596 39.073 49.8757 39.124 49.9082 39.165C49.9406 39.2059 49.9872 39.234 50.0392 39.2439C50.2964 39.2917 50.5575 39.3167 50.8194 39.3186H51.0472C51.3187 39.3292 51.5309 39.3445 51.687 39.3597C51.8371 39.3754 51.9839 39.4135 52.1223 39.4725C52.2543 39.5266 52.3664 39.6186 52.4438 39.7363C52.5297 39.8802 52.5709 40.0455 52.5623 40.2119C52.5606 40.3737 52.5408 40.5347 52.503 40.6922C52.4563 40.9404 52.3493 41.1741 52.191 41.3736C52.0526 41.5436 51.8743 41.6785 51.6714 41.767C51.4586 41.858 51.2329 41.9166 51.0019 41.9408C50.7179 41.9703 50.4325 41.984 50.1469 41.9819C49.8145 41.9819 49.5523 41.9819 49.3667 41.9652C49.1904 41.9572 49.0164 41.9238 48.8502 41.8661C48.7086 41.8195 48.5857 41.7304 48.4991 41.6115C48.4078 41.4604 48.3639 41.2866 48.3727 41.1114C48.376 40.9328 48.3985 40.7549 48.4398 40.5809H49.5071C49.4869 40.685 49.4754 40.7905 49.4728 40.8965C49.4631 40.9599 49.4743 41.0247 49.5045 41.0817C49.5348 41.1386 49.5826 41.1847 49.6413 41.2136C49.8588 41.2735 50.0851 41.2972 50.3107 41.2837C50.5863 41.2994 50.8626 41.2674 51.1268 41.1892C51.2828 41.1251 51.3889 40.9651 51.4389 40.7059C51.4571 40.6298 51.4686 40.5522 51.4732 40.4742C51.4725 40.414 51.4519 40.3557 51.4145 40.3079C51.3771 40.26 51.3249 40.2253 51.2657 40.2089C51.0053 40.1379 50.7352 40.1075 50.4652 40.1189C49.8046 40.1068 49.3531 40.0498 49.1108 39.9482C48.9929 39.899 48.8942 39.8143 48.8288 39.7066C48.7635 39.5989 48.7349 39.4737 48.7472 39.3491C48.7543 39.1536 48.7826 38.9594 48.8315 38.7697C48.8757 38.5234 48.9771 38.2903 49.1279 38.0883C49.256 37.9253 49.427 37.7994 49.6226 37.7239C49.8228 37.6486 50.0329 37.6014 50.2467 37.5837C50.4699 37.5638 50.7585 37.5547 51.1143 37.5547C51.3733 37.5547 51.5902 37.5547 51.765 37.576C51.9368 37.5889 52.1062 37.6232 52.269 37.6782C52.4216 37.7271 52.5558 37.8195 52.6544 37.9434C52.7567 38.0858 52.8072 38.2576 52.798 38.4313C52.7969 38.5508 52.7827 38.6699 52.7558 38.7865L51.6948 38.7804Z" fill="#00204A"/>
<path d="M52.9731 37.912H53.5016L53.701 37.001H54.7109L54.5086 37.912H56.1194L55.9511 38.6479H54.3417L53.8855 40.7087V40.7242C53.8608 40.8197 53.845 40.917 53.8383 41.0152C53.835 41.0486 53.8406 41.0823 53.8546 41.1132C53.8685 41.144 53.8903 41.171 53.918 41.1917C54.0041 41.2353 54.1016 41.2539 54.1985 41.2454C54.4274 41.2454 54.5839 41.1861 54.6666 41.066C54.7692 40.8939 54.8383 40.7053 54.8703 40.5095C54.8821 40.4587 54.8895 40.4205 54.8954 40.3951H55.7813C55.7276 40.6595 55.6485 40.9186 55.5451 41.1691C55.4712 41.3476 55.3591 41.5093 55.2158 41.6437C55.0797 41.7649 54.9151 41.8531 54.736 41.9008C54.5073 41.9591 54.2712 41.9862 54.0346 41.9813C53.5819 41.9813 53.2629 41.93 53.0779 41.8273C52.8933 41.7256 52.8018 41.5364 52.8018 41.2624C52.8066 41.0792 52.8309 40.897 52.8741 40.7186L53.3274 38.6479H52.7988L52.9731 37.912Z" fill="#00204A"/>
<path d="M60.1903 40.0263L60.1247 40.3061C60.1059 40.3982 60.0954 40.4919 60.0934 40.5858C60.0843 40.6685 60.1052 40.7516 60.1525 40.8204C60.1998 40.8892 60.2702 40.9391 60.3513 40.9613C60.6782 41.0289 61.0124 41.0557 61.346 41.0409C61.5625 41.0444 61.7789 41.0311 61.9932 41.0011C62.1318 40.9832 62.2647 40.9354 62.3824 40.8612C62.479 40.7945 62.5558 40.7035 62.6046 40.5976C62.6656 40.4558 62.7101 40.3076 62.7374 40.1559C62.7621 40.0535 62.7761 39.9489 62.7791 39.8437C62.7791 39.6464 62.712 39.5227 62.5808 39.4727C62.3505 39.4082 62.1118 39.3774 61.8724 39.3814L61.5399 39.3652C61.5026 39.3652 61.4295 39.3534 61.3222 39.349C60.9881 39.3328 60.7256 39.3122 60.5377 39.2842C60.3577 39.259 60.1821 39.2095 60.0158 39.1369C59.8583 39.0698 59.7267 38.9547 59.64 38.8086C59.54 38.6285 59.492 38.4247 59.5013 38.2196C59.5058 38.0067 59.5333 37.795 59.5833 37.5879C59.6439 37.2501 59.7743 36.9283 59.9666 36.6426C60.1213 36.4228 60.3323 36.2475 60.578 36.1345C60.8252 36.0263 61.0887 35.9586 61.3579 35.9343C61.6413 35.9078 62.0071 35.8945 62.4555 35.8945C62.7896 35.8945 63.0625 35.9048 63.2757 35.9225C63.4751 35.9386 63.6713 35.9817 63.8588 36.0506C64.0255 36.1114 64.1692 36.2214 64.2704 36.3657C64.3788 36.5428 64.4308 36.7481 64.4195 36.9547C64.4163 37.14 64.3943 37.3245 64.3539 37.5054L64.3136 37.6968H63.1504L63.1907 37.5054C63.2106 37.4134 63.2216 37.3197 63.2235 37.2256C63.2348 37.1562 63.2206 37.0851 63.1834 37.0252C63.1462 36.9652 63.0885 36.9204 63.0207 36.8988C62.7686 36.8448 62.5104 36.8235 62.2527 36.8354C61.9395 36.8354 61.698 36.8443 61.5279 36.862C61.3862 36.8736 61.2478 36.9105 61.1193 36.9709C61.0197 37.0213 60.9369 37.0991 60.8807 37.1947C60.8153 37.3168 60.7704 37.4486 60.748 37.5849C60.7159 37.7078 60.6969 37.8336 60.6914 37.9604C60.683 38.0344 60.7017 38.1089 60.7441 38.1704C60.7865 38.232 60.8498 38.2766 60.9225 38.2961C61.2454 38.3675 61.5745 38.4079 61.9052 38.4169C62.3422 38.4434 62.6792 38.4714 62.9193 38.4993C63.1238 38.5225 63.3243 38.572 63.5158 38.6466C63.6626 38.7021 63.7882 38.8015 63.8752 38.9308C63.9612 39.0846 64.002 39.259 63.993 39.4344C63.9856 39.6766 63.9526 39.9175 63.8946 40.1529C63.8326 40.499 63.7126 40.8324 63.5397 41.1395C63.408 41.3688 63.2164 41.559 62.9849 41.6902C62.7503 41.8153 62.4937 41.8953 62.2288 41.9258C61.8665 41.967 61.5019 41.9857 61.1372 41.9818C60.7396 41.9818 60.417 41.9724 60.1694 41.9538C59.9447 41.9387 59.7231 41.8942 59.5103 41.8213C59.3269 41.7605 59.1674 41.6447 59.054 41.49C58.9337 41.3031 58.8758 41.0837 58.8884 40.8627C58.8908 40.675 58.9123 40.488 58.9525 40.3046L59.0167 40.0248L60.1903 40.0263Z" fill="#00204A"/>
<path d="M68.0143 40.2829C67.9619 40.583 67.8738 40.8742 67.752 41.1488C67.6595 41.3536 67.5213 41.5292 67.3504 41.6593C67.1731 41.7876 66.9733 41.8735 66.7639 41.9115C66.4765 41.9633 66.1855 41.9867 65.8944 41.9814C65.3506 41.9814 64.9688 41.9029 64.7489 41.7459C64.529 41.5889 64.4195 41.3048 64.4204 40.8936C64.4319 40.5157 64.4781 40.14 64.5584 39.7724C64.6214 39.4265 64.7077 39.0863 64.8165 38.7545C64.8982 38.5072 65.024 38.2805 65.1864 38.0875C65.3561 37.8993 65.5665 37.7618 65.7978 37.6879C66.1055 37.5916 66.4247 37.547 66.7445 37.5558C67.2828 37.5558 67.6757 37.6216 67.9232 37.7533C68.1707 37.8849 68.2944 38.1513 68.2944 38.5524C68.2909 38.744 68.2706 38.9348 68.2337 39.1221H67.2911C67.3131 39.0107 67.3256 38.8973 67.3283 38.7833C67.3362 38.7136 67.3247 38.643 67.2954 38.5806C67.2661 38.5182 67.2203 38.4671 67.1641 38.4339C66.9813 38.3635 66.7875 38.334 66.5941 38.3473C66.4291 38.3413 66.2642 38.3639 66.1056 38.4142C65.9944 38.4545 65.8977 38.5327 65.8295 38.6375C65.7543 38.7599 65.6975 38.8948 65.6612 39.0371C65.617 39.1981 65.5645 39.4442 65.5038 39.7739L65.4886 39.8316C65.4257 40.1187 65.3832 40.4108 65.3617 40.7052C65.3553 40.7767 65.3658 40.8488 65.3922 40.9146C65.4185 40.9803 65.4598 41.0374 65.5121 41.0805C65.6766 41.1704 65.8604 41.2087 66.0434 41.1914C66.203 41.1931 66.3624 41.1789 66.5196 41.1488C66.618 41.135 66.7109 41.0909 66.7876 41.0216C66.8642 40.9522 66.9215 40.8605 66.9529 40.7569C67.0048 40.6013 67.045 40.4412 67.073 40.2783L68.0143 40.2829Z" fill="#00204A"/>
<path d="M69.5174 41.9823H68.2949L69.3814 37.7203H70.6057L69.5174 41.9823ZM70.8491 36.7625H69.6248L69.8378 35.8945H71.0621L70.8491 36.7625Z" fill="#00204A"/>
<path d="M74.6156 40.5541C74.5631 40.8336 74.4571 41.1011 74.3033 41.3425C74.1796 41.527 74.0069 41.6753 73.8035 41.7717C73.597 41.8637 73.3765 41.9223 73.1507 41.9452C72.8439 41.9725 72.5358 41.9847 72.2277 41.9817C71.5947 41.9817 71.1496 41.898 70.8925 41.7306C70.6364 41.5616 70.5083 41.274 70.5083 40.8509C70.5238 40.4915 70.5762 40.1346 70.6645 39.7855C70.7344 39.4312 70.8337 39.0831 70.9612 38.7444C71.0556 38.4945 71.203 38.2669 71.3938 38.0762C71.5908 37.8903 71.8324 37.7553 72.0966 37.6836C72.4528 37.5903 72.821 37.5473 73.1898 37.5557C73.8457 37.5557 74.3001 37.6333 74.5547 37.7916C74.8092 37.9499 74.9357 38.233 74.9357 38.6455C74.9142 39.0909 74.8488 39.5333 74.7405 39.9666H71.6843C71.6233 40.2079 71.5836 40.4538 71.5656 40.7017C71.5582 40.7752 71.5707 40.8494 71.602 40.9167C71.6332 40.984 71.6821 41.0421 71.7436 41.0852C71.9472 41.1764 72.1716 41.2147 72.3948 41.1964C72.6662 41.2107 72.9379 41.1756 73.196 41.0929C73.3631 41.0244 73.4802 40.8478 73.5474 40.5617L74.6156 40.5541ZM73.8191 39.2984C73.8606 39.1192 73.8862 38.937 73.8957 38.7535C73.9057 38.6862 73.894 38.6174 73.8621 38.5568C73.8302 38.4963 73.7797 38.4469 73.7176 38.4156C73.4921 38.3521 73.257 38.3269 73.0227 38.3411C72.8354 38.337 72.6481 38.3508 72.4636 38.3822C72.3481 38.4024 72.2403 38.4523 72.1512 38.5268C72.0693 38.6034 72.0073 38.6978 71.9701 38.8022C71.9119 38.964 71.8665 39.1299 71.8342 39.2984H73.8191Z" fill="#00204A"/>
<path d="M76.8238 37.6049L76.6895 38.2643H76.7216C76.8436 38.0045 77.0511 37.8002 77.3053 37.6895C77.5847 37.5922 77.878 37.547 78.1721 37.5558C78.5953 37.5558 78.9017 37.6295 79.0827 37.7771C79.1794 37.8621 79.2551 37.9706 79.3034 38.0932C79.3517 38.2157 79.3711 38.3488 79.3599 38.481C79.3562 38.688 79.3322 38.894 79.2884 39.0958L78.7047 41.9806H77.7066L78.2582 39.2064C78.286 39.0777 78.3021 38.9465 78.3064 38.8145C78.3127 38.7474 78.3027 38.6796 78.2771 38.6177C78.2516 38.5559 78.2114 38.5019 78.1604 38.461C78.0058 38.377 77.8318 38.3408 77.6585 38.3565C77.2518 38.3565 76.9653 38.4508 76.799 38.6393C76.598 38.9115 76.4659 39.2331 76.4152 39.5738L75.9322 41.9821H74.9355L75.8228 37.6049H76.8238Z" fill="#00204A"/>
<path d="M83.5081 40.2829C83.4566 40.5828 83.3694 40.874 83.2486 41.1488C83.156 41.3531 83.0184 41.5286 82.8484 41.6593C82.6703 41.7872 82.4702 41.8731 82.2605 41.9115C81.9731 41.9633 81.6821 41.9867 81.391 41.9814C80.8472 41.9814 80.4663 41.9024 80.2455 41.7459C80.0246 41.5894 79.917 41.3053 79.917 40.8936C79.9285 40.5157 79.9747 40.14 80.055 39.7724C80.118 39.4265 80.2042 39.0863 80.3131 38.7545C80.3946 38.5068 80.5209 38.2799 80.6843 38.0875C80.8533 37.899 81.0633 37.7615 81.2944 37.6879C81.6021 37.5916 81.9213 37.547 82.2411 37.5558C82.7794 37.5558 83.1723 37.6216 83.4198 37.7533C83.6673 37.8849 83.791 38.1513 83.791 38.5524C83.7875 38.744 83.7671 38.9348 83.7303 39.1221H82.7877C82.8097 39.0107 82.8221 38.8973 82.8249 38.7833C82.8328 38.7136 82.8213 38.643 82.792 38.5806C82.7627 38.5182 82.7169 38.4671 82.6607 38.4339C82.4778 38.3635 82.284 38.334 82.0907 38.3473C81.9253 38.3408 81.76 38.3628 81.6007 38.4126C81.4896 38.453 81.3929 38.5312 81.3247 38.636C81.25 38.7587 81.1932 38.8935 81.1564 39.0355C81.1122 39.1966 81.0597 39.4427 80.999 39.7724L80.9852 39.8301C80.9213 40.1171 80.8784 40.4092 80.8569 40.7037C80.8505 40.7752 80.861 40.8473 80.8874 40.9131C80.9137 40.9788 80.955 41.0359 81.0073 41.079C81.1719 41.1687 81.3556 41.2071 81.5386 41.1899C81.6954 41.1916 81.852 41.1778 82.0065 41.1488C82.1073 41.1316 82.2023 41.0861 82.2825 41.0167C82.3545 40.9459 82.4095 40.8567 82.4426 40.7569C82.4945 40.6013 82.5347 40.4412 82.5627 40.2783L83.5081 40.2829Z" fill="#00204A"/>
<path d="M87.8999 40.5541C87.8474 40.8336 87.7414 41.1011 87.5875 41.3425C87.4639 41.527 87.2912 41.6753 87.0878 41.7717C86.8813 41.8637 86.6608 41.9223 86.435 41.9452C86.1282 41.9725 85.8201 41.9847 85.512 41.9817C84.879 41.9817 84.4339 41.898 84.1768 41.7306C83.9206 41.5616 83.791 41.274 83.791 40.8509C83.8067 40.4916 83.859 40.1347 83.9472 39.7855C84.0172 39.4312 84.1164 39.0831 84.2439 38.7444C84.3383 38.4946 84.4857 38.2669 84.6765 38.0763C84.8733 37.89 85.1149 37.755 85.3793 37.6836C85.7355 37.5903 86.1037 37.5472 86.4725 37.5557C87.1284 37.5557 87.5828 37.6334 87.8374 37.7917C88.092 37.9499 88.2185 38.233 88.2185 38.6455C88.1969 39.0909 88.1315 39.5333 88.0232 39.9666H84.9701C84.9091 40.2079 84.8694 40.4538 84.8514 40.7017C84.8437 40.7751 84.8559 40.8492 84.8869 40.9165C84.9179 40.9839 84.9665 41.0421 85.0279 41.0853C85.2321 41.1764 85.4569 41.2147 85.6807 41.1964C85.952 41.2107 86.2237 41.1756 86.4818 41.0929C86.6474 41.0244 86.7661 40.8478 86.8332 40.5617L87.8999 40.5541ZM87.105 39.2984C87.1461 39.1193 87.1712 38.937 87.1799 38.7536C87.1905 38.6861 87.179 38.6172 87.147 38.5565C87.115 38.4959 87.0643 38.4466 87.0019 38.4157C86.7769 38.352 86.5423 38.3268 86.3085 38.3411C86.1212 38.3371 85.9339 38.3508 85.7494 38.3822C85.6339 38.4024 85.5261 38.4523 85.4371 38.5268C85.3552 38.6037 85.2927 38.698 85.2543 38.8023C85.1976 38.9644 85.1527 39.1301 85.12 39.2984H87.105Z" fill="#00204A"/>
<path d="M95.7969 41.32C95.6863 41.47 95.5453 41.5949 95.3831 41.6864C95.224 41.7776 95.0525 41.845 94.874 41.8866C94.6962 41.9289 94.515 41.9555 94.3326 41.9661C94.1521 41.9764 93.9409 41.9823 93.6958 41.9823C93.3144 41.9823 92.9999 41.9705 92.7524 41.9469C92.531 41.9283 92.3138 41.8757 92.1083 41.7909C91.934 41.7183 91.7867 41.5927 91.6872 41.4318C91.5805 41.2366 91.5297 41.0155 91.5405 40.7931C91.5451 40.5644 91.5746 40.3368 91.6285 40.1146C91.6685 39.8956 91.7269 39.6804 91.8031 39.4714C91.8674 39.2966 91.9574 39.1323 92.0701 38.9842C92.1828 38.8388 92.3274 38.7214 92.4927 38.6413C92.6878 38.5497 92.8984 38.4958 93.1133 38.4823C93.0142 38.3847 92.9297 38.2731 92.8625 38.1512C92.8098 38.0458 92.7836 37.9291 92.7862 37.8112C92.7899 37.6794 92.8061 37.5484 92.8346 37.4197C92.8863 37.1389 92.9855 36.8691 93.128 36.622C93.2403 36.4332 93.3976 36.2754 93.5858 36.1628C93.7798 36.0551 93.9915 35.9833 94.2108 35.9508C94.4995 35.9103 94.7909 35.8916 95.0824 35.8949C95.6761 35.8949 96.0869 35.9562 96.3148 36.0789C96.5437 36.201 96.6582 36.4498 96.6582 36.8221C96.6465 37.142 96.6037 37.4599 96.5305 37.7715H95.5519C95.5962 37.5828 95.6252 37.3908 95.6384 37.1975C95.6477 37.1392 95.6385 37.0794 95.6122 37.0266C95.5859 36.9738 95.5437 36.9306 95.4917 36.9031C95.0677 36.8041 94.6257 36.8138 94.2064 36.9311C94.0597 36.9943 93.9717 37.1592 93.913 37.4256C93.8943 37.5012 93.884 37.5787 93.8822 37.6567C93.8805 37.7418 93.9007 37.8259 93.9409 37.901C93.9928 37.9875 94.0559 38.0666 94.1287 38.1365L95.6722 39.7893L95.8394 38.9827H96.8181L96.7388 39.389C96.686 39.6392 96.6347 39.8496 96.5833 40.0204C96.5331 40.1918 96.4653 40.3576 96.3808 40.5149L97.0734 41.2655L96.3882 41.9278L95.7969 41.32ZM93.5961 39.0195C93.4557 39.0385 93.3188 39.0777 93.1896 39.1358C93.0943 39.1825 93.0121 39.2523 92.9505 39.3389C92.8859 39.4321 92.8364 39.5349 92.8038 39.6436C92.77 39.7599 92.7333 39.9173 92.6967 40.1146C92.6635 40.2451 92.6448 40.3788 92.6409 40.5134C92.6409 40.7533 92.726 40.9005 92.8962 40.955C93.2227 41.0266 93.5571 41.0549 93.891 41.0389C94.1572 41.0451 94.4234 41.0264 94.6862 40.9829C94.8811 40.9374 95.0567 40.8313 95.188 40.6797L93.5961 39.0195Z" fill="#00204A"/>
<path d="M102.283 41.9823H101.108L102.194 36.8929H100.394L100.606 35.8945H105.375L105.163 36.8929H103.37L102.283 41.9823Z" fill="#00204A"/>
<path d="M107.857 40.5541C107.811 40.8337 107.718 41.1011 107.584 41.3425C107.476 41.5275 107.325 41.676 107.147 41.7717C106.967 41.8637 106.775 41.9223 106.578 41.9452C106.31 41.9725 106.04 41.9847 105.77 41.9817C105.218 41.9817 104.83 41.898 104.605 41.7306C104.38 41.5616 104.268 41.274 104.268 40.8509C104.282 40.4916 104.328 40.1347 104.405 39.7855C104.466 39.4313 104.552 39.0832 104.664 38.7445C104.745 38.4945 104.874 38.2667 105.04 38.0764C105.213 37.8908 105.424 37.7558 105.654 37.6837C105.968 37.5898 106.293 37.5467 106.618 37.5559C107.19 37.5559 107.587 37.6335 107.809 37.7918C108.032 37.9501 108.142 38.2332 108.142 38.6456C108.124 39.0911 108.067 39.5335 107.972 39.9666H105.296C105.242 40.2079 105.208 40.4539 105.192 40.7017C105.185 40.7753 105.196 40.8494 105.224 40.9167C105.251 40.984 105.294 41.0422 105.347 41.0853C105.526 41.1765 105.722 41.2148 105.918 41.1964C106.154 41.2109 106.391 41.1758 106.616 41.0929C106.763 41.0244 106.865 40.8479 106.924 40.5617L107.857 40.5541ZM107.161 39.2985C107.198 39.1195 107.22 38.9371 107.228 38.7537C107.237 38.6863 107.227 38.6173 107.199 38.5567C107.171 38.496 107.127 38.4467 107.072 38.4158C106.875 38.3522 106.67 38.3269 106.465 38.3412C106.301 38.3372 106.138 38.351 105.977 38.3823C105.876 38.4023 105.781 38.4522 105.704 38.5269C105.632 38.6038 105.577 38.6981 105.544 38.8024C105.493 38.9642 105.453 39.13 105.425 39.2985H107.161Z" fill="#00204A"/>
<path d="M112.289 40.2829C112.237 40.5832 112.149 40.8745 112.027 41.1488C111.935 41.3535 111.797 41.5292 111.627 41.6593C111.449 41.7878 111.249 41.8737 111.039 41.9115C110.752 41.9633 110.461 41.9867 110.171 41.9814C109.627 41.9814 109.245 41.9029 109.025 41.7459C108.805 41.5889 108.695 41.3048 108.695 40.8936C108.708 40.5158 108.754 40.1402 108.833 39.7724C108.897 39.4264 108.983 39.0862 109.093 38.7545C109.174 38.5069 109.3 38.28 109.463 38.0875C109.632 37.8994 109.842 37.7618 110.073 37.6879C110.38 37.5916 110.7 37.547 111.019 37.5558C111.56 37.5558 111.953 37.6216 112.199 37.7533C112.446 37.8849 112.569 38.1513 112.569 38.5524C112.566 38.744 112.546 38.9348 112.51 39.1221H111.566C111.588 39.0108 111.601 38.8973 111.605 38.7833C111.613 38.7135 111.601 38.6426 111.571 38.5802C111.542 38.5177 111.496 38.4667 111.439 38.4339C111.257 38.3634 111.063 38.334 110.87 38.3473C110.705 38.3407 110.54 38.3627 110.38 38.4126C110.269 38.453 110.173 38.5312 110.104 38.636C110.029 38.758 109.972 38.893 109.936 39.0355C109.891 39.1966 109.838 39.4427 109.779 39.7724L109.764 39.8301C109.701 40.1172 109.658 40.4093 109.637 40.7037C109.63 40.775 109.641 40.847 109.667 40.9126C109.693 40.9783 109.734 41.0356 109.786 41.079C109.951 41.1687 110.135 41.207 110.318 41.1899C110.476 41.1933 110.633 41.1811 110.789 41.1534C110.89 41.1361 110.985 41.0906 111.065 41.0212C111.137 40.9506 111.193 40.8613 111.226 40.7614C111.278 40.6058 111.319 40.4457 111.347 40.2829H112.289Z" fill="#00204A"/>
<path d="M114.659 38.3637H114.687C114.794 38.1106 114.975 37.9117 115.198 37.8041C115.442 37.7093 115.699 37.6652 115.956 37.6739C116.326 37.6739 116.591 37.7457 116.752 37.8894C116.836 37.9722 116.903 38.0778 116.945 38.1971C116.987 38.3165 117.004 38.446 116.994 38.5747C116.991 38.7762 116.97 38.9767 116.933 39.1733L116.422 41.9823H115.541L116.033 39.2796C116.056 39.1541 116.07 39.0264 116.074 38.898C116.079 38.8326 116.071 38.7667 116.048 38.7064C116.026 38.6462 115.991 38.5936 115.946 38.5538C115.81 38.4722 115.658 38.4369 115.506 38.452C115.151 38.452 114.9 38.5438 114.755 38.7274C114.578 38.9916 114.462 39.3051 114.419 39.6373L113.996 41.9823H113.123L114.225 35.8945H115.097L114.659 38.3637Z" fill="#00204A"/>
<path d="M119.435 37.605L119.3 38.2646H119.333C119.455 38.0045 119.663 37.8001 119.917 37.6895C120.197 37.5922 120.491 37.5469 120.786 37.5558C121.208 37.5558 121.512 37.6296 121.697 37.7772C121.794 37.8623 121.87 37.9708 121.918 38.0934C121.966 38.216 121.986 38.3491 121.975 38.4813C121.971 38.6884 121.947 38.8944 121.903 39.0963L121.318 41.9821H120.32L120.882 39.2055C120.909 39.0765 120.925 38.9453 120.929 38.8134C120.936 38.7463 120.926 38.6785 120.9 38.6166C120.874 38.5547 120.834 38.5007 120.783 38.4598C120.628 38.376 120.453 38.3397 120.279 38.3553C119.872 38.3553 119.586 38.4496 119.419 38.6382C119.216 38.9096 119.084 39.2316 119.034 39.5729L118.55 41.9821H117.55L118.439 37.6034L119.435 37.605Z" fill="#00204A"/>
<path d="M126.074 37.7915C126.295 37.9434 126.405 38.2229 126.405 38.6193C126.393 39.0076 126.348 39.3936 126.271 39.7722C126.206 40.1419 126.116 40.5055 126.003 40.8598C125.925 41.1043 125.801 41.3267 125.639 41.5114C125.47 41.6871 125.263 41.8105 125.039 41.8699C124.718 41.9526 124.389 41.9899 124.06 41.9808C123.487 41.9808 123.089 41.9018 122.865 41.7454C122.641 41.5889 122.531 41.314 122.531 40.9175C122.547 40.5313 122.595 40.1478 122.676 39.7722C122.741 39.4001 122.831 39.034 122.945 38.6771C123.023 38.4328 123.147 38.2106 123.308 38.0254C123.478 37.8495 123.685 37.7261 123.909 37.667C124.231 37.5841 124.56 37.5468 124.889 37.5561C125.457 37.5561 125.854 37.6335 126.074 37.7915ZM124.237 38.4143C124.122 38.4516 124.019 38.5261 123.942 38.6285C123.856 38.7527 123.792 38.8938 123.752 39.0447C123.686 39.2887 123.631 39.5367 123.589 39.7874C123.523 40.0735 123.482 40.3659 123.465 40.6608C123.456 40.7412 123.466 40.8228 123.494 40.8973C123.522 40.9717 123.567 41.0364 123.625 41.0846C123.806 41.1753 124.003 41.2134 124.201 41.1955C124.37 41.2019 124.539 41.1809 124.702 41.1332C124.817 41.0968 124.919 41.0241 124.998 40.9236C125.082 40.8041 125.145 40.6668 125.183 40.5196C125.231 40.3494 125.287 40.1054 125.351 39.7874C125.411 39.495 125.45 39.1972 125.466 38.8973C125.475 38.8163 125.465 38.7341 125.437 38.6589C125.409 38.5837 125.364 38.5182 125.306 38.469C125.129 38.3751 124.934 38.3353 124.739 38.3535C124.57 38.3474 124.401 38.3679 124.237 38.4143Z" fill="#00204A"/>
<path d="M127.627 41.9823H126.405L127.948 35.8945H129.172L127.627 41.9823Z" fill="#00204A"/>
<path d="M132.714 37.7915C132.936 37.9434 133.046 38.2229 133.046 38.6193C133.033 39.0076 132.988 39.3936 132.912 39.7722C132.847 40.1419 132.757 40.5055 132.643 40.8598C132.565 41.1043 132.441 41.3267 132.28 41.5114C132.11 41.6871 131.904 41.8105 131.68 41.8699C131.359 41.9526 131.03 41.9899 130.7 41.9808C130.127 41.9808 129.73 41.9018 129.506 41.7454C129.282 41.5889 129.172 41.314 129.172 40.9175C129.187 40.5313 129.236 40.1478 129.317 39.7722C129.382 39.4001 129.472 39.034 129.585 38.6771C129.664 38.4328 129.788 38.2106 129.949 38.0254C130.119 37.8495 130.326 37.7261 130.55 37.667C130.871 37.5841 131.2 37.5468 131.53 37.5561C132.092 37.5561 132.494 37.6335 132.714 37.7915ZM130.884 38.4143C130.769 38.4516 130.667 38.5261 130.589 38.6285C130.504 38.7527 130.439 38.8938 130.4 39.0447C130.333 39.2887 130.279 39.5367 130.236 39.7874C130.17 40.0735 130.129 40.3659 130.113 40.6608C130.103 40.7412 130.114 40.8228 130.142 40.8973C130.17 40.9717 130.215 41.0364 130.272 41.0846C130.453 41.1753 130.651 41.2134 130.848 41.1955C131.017 41.202 131.186 41.181 131.35 41.1332C131.464 41.0968 131.566 41.0241 131.645 40.9236C131.73 40.8041 131.793 40.6668 131.83 40.5196C131.878 40.3494 131.934 40.1054 131.998 39.7874C132.059 39.495 132.098 39.1972 132.115 38.8973C132.123 38.8162 132.113 38.7339 132.085 38.6587C132.057 38.5835 132.011 38.518 131.954 38.469C131.777 38.3751 131.581 38.3353 131.386 38.3535C131.217 38.3474 131.048 38.3679 130.884 38.4143Z" fill="#00204A"/>
<path d="M133.858 43.6424C133.71 43.6244 133.565 43.5811 133.43 43.514C133.313 43.4546 133.214 43.3585 133.147 43.238C133.076 43.0972 133.041 42.938 133.047 42.7774C133.05 42.5955 133.075 42.4149 133.122 42.2401H133.991C133.968 42.3315 133.955 42.4257 133.954 42.5205C133.946 42.5808 133.955 42.6422 133.979 42.6971C134.003 42.752 134.042 42.7979 134.09 42.8291C134.244 42.8903 134.409 42.9164 134.573 42.9058C134.738 42.9092 134.904 42.8954 135.066 42.8645C135.179 42.8451 135.286 42.7987 135.38 42.7287C135.464 42.659 135.531 42.567 135.574 42.4615C135.633 42.3158 135.679 42.164 135.71 42.0083L135.865 41.2082H135.843C135.703 41.439 135.501 41.6177 135.264 41.7204C135.022 41.8141 134.767 41.8601 134.509 41.8563C134.063 41.8563 133.75 41.7697 133.57 41.5964C133.475 41.494 133.401 41.3704 133.354 41.234C133.307 41.0977 133.288 40.9519 133.298 40.8067C133.31 40.4777 133.352 40.1509 133.423 39.831C133.502 39.4294 133.577 39.1061 133.649 38.8567C133.716 38.616 133.819 38.3891 133.954 38.185C134.093 37.9795 134.281 37.8188 134.497 37.72C134.768 37.6016 135.059 37.5458 135.351 37.5562C135.598 37.5452 135.844 37.5957 136.07 37.7038C136.163 37.7576 136.243 37.8339 136.305 37.9268C136.367 38.0196 136.409 38.1266 136.427 38.2396H136.457L136.545 37.6064H137.474L136.648 41.8031C136.595 42.1279 136.504 42.444 136.377 42.7434C136.281 42.9614 136.142 43.1531 135.969 43.3044C135.788 43.4511 135.58 43.5519 135.358 43.5996M135.063 38.3872C134.956 38.4197 134.859 38.4835 134.782 38.5718C134.694 38.6812 134.626 38.8073 134.58 38.9438C134.508 39.1546 134.451 39.3713 134.41 39.5918V39.6007C134.341 39.8974 134.295 40.2002 134.275 40.5056C134.269 40.5864 134.279 40.6676 134.305 40.7439C134.33 40.8202 134.37 40.8899 134.421 40.9484C134.572 41.0622 134.755 41.1145 134.937 41.096C135.122 41.102 135.306 41.0709 135.48 41.0045C135.613 40.9498 135.728 40.855 135.812 40.7314C135.897 40.6032 135.961 40.4598 136 40.3078C136.044 40.1454 136.096 39.9062 136.155 39.5903C136.201 39.3776 136.228 39.1606 136.235 38.9423C136.243 38.8557 136.231 38.7685 136.202 38.6876C136.172 38.6068 136.126 38.5347 136.066 38.4773C135.953 38.3814 135.757 38.3297 135.476 38.3297C135.335 38.3241 135.193 38.34 135.055 38.3769L135.063 38.3872Z" fill="#00204A"/>
<path d="M137.474 43.6424L137.643 42.8746L137.706 42.8835C137.755 42.8925 137.805 42.898 137.855 42.8999C137.991 42.9033 138.125 42.871 138.245 42.8061C138.354 42.7443 138.45 42.6608 138.526 42.5606C138.601 42.4623 138.666 42.3566 138.719 42.2451C138.77 42.138 138.827 41.9981 138.893 41.8255L138.909 41.7927H138.418L137.927 37.5547H138.965L139.271 41.1633H139.287L140.872 37.5547H141.901L139.874 41.9624C139.735 42.2689 139.614 42.514 139.512 42.6975C139.412 42.8788 139.289 43.0468 139.146 43.1975C139.001 43.3492 138.826 43.4688 138.632 43.5487" fill="#00204A"/>
<path d="M146.464 38.5089H149.004L148.814 39.4667H146.274L145.763 41.9823H144.668L145.878 35.8945H149.649L149.452 36.8927H146.775L146.464 38.5089Z" fill="#00204A"/>
<path d="M152.683 40.5541C152.637 40.8337 152.545 41.1011 152.41 41.3425C152.302 41.527 152.152 41.6753 151.974 41.7717C151.794 41.8637 151.601 41.9223 151.404 41.9452C151.136 41.9725 150.867 41.9847 150.598 41.9817C150.046 41.9817 149.657 41.898 149.431 41.7306C149.208 41.5617 149.096 41.274 149.096 40.8509C149.109 40.4916 149.155 40.1347 149.232 39.7855C149.293 39.4313 149.38 39.0832 149.491 38.7445C149.574 38.4947 149.703 38.267 149.869 38.0764C150.041 37.8904 150.252 37.7555 150.483 37.6837C150.796 37.5898 151.12 37.5467 151.445 37.5559C152.018 37.5559 152.415 37.6335 152.637 37.7918C152.859 37.9501 152.97 38.2332 152.97 38.6456C152.951 39.091 152.894 39.5334 152.799 39.9666H150.128C150.075 40.2079 150.04 40.4539 150.025 40.7017C150.018 40.7753 150.029 40.8494 150.056 40.9167C150.084 40.984 150.126 41.0422 150.18 41.0853C150.358 41.1764 150.554 41.2147 150.749 41.1964C150.986 41.2107 151.223 41.1756 151.449 41.0929C151.595 41.0244 151.697 40.8479 151.756 40.5617L152.683 40.5541ZM151.988 39.2985C152.024 39.1194 152.046 38.9371 152.054 38.7537C152.064 38.6863 152.054 38.6173 152.026 38.5567C151.998 38.496 151.953 38.4467 151.899 38.4158C151.702 38.3523 151.497 38.3271 151.292 38.3412C151.128 38.3372 150.965 38.351 150.804 38.3823C150.703 38.4026 150.609 38.4525 150.531 38.5269C150.46 38.6043 150.406 38.6984 150.372 38.8024C150.322 38.9642 150.282 39.13 150.254 39.2985H151.988Z" fill="#00204A"/>
<path d="M156.43 38.7903C156.444 38.7255 156.451 38.6593 156.452 38.5927C156.452 38.4407 156.406 38.3541 156.316 38.3207C155.923 38.242 155.519 38.256 155.132 38.3617C154.995 38.4225 154.9 38.5821 154.851 38.8405C154.837 38.9028 154.83 38.9664 154.829 39.0304C154.826 39.0821 154.841 39.133 154.869 39.1738C154.898 39.2146 154.939 39.2425 154.984 39.2523C155.209 39.3002 155.437 39.3251 155.666 39.3268H155.867C156.103 39.3374 156.29 39.3526 156.425 39.3678C156.557 39.3835 156.686 39.4214 156.807 39.4803C156.922 39.5351 157.02 39.6266 157.088 39.7432C157.163 39.887 157.199 40.0516 157.192 40.2174C157.19 40.3786 157.172 40.539 157.14 40.6962C157.098 40.9432 157.004 41.1759 156.867 41.3755C156.745 41.5446 156.589 41.679 156.411 41.7676C156.225 41.8584 156.028 41.9168 155.826 41.9409C155.578 41.9703 155.329 41.984 155.08 41.9819C154.788 41.9819 154.559 41.9819 154.398 41.9652C154.243 41.9573 154.091 41.924 153.946 41.8664C153.819 41.8168 153.71 41.723 153.635 41.5989C153.555 41.4484 153.517 41.2751 153.524 41.1004C153.527 40.9223 153.547 40.7451 153.583 40.5715H154.516C154.499 40.6753 154.489 40.7805 154.486 40.8861C154.478 40.9496 154.488 41.0143 154.515 41.0711C154.541 41.1279 154.583 41.1738 154.635 41.2023C154.825 41.2621 155.022 41.2858 155.219 41.2722C155.46 41.2877 155.702 41.2558 155.934 41.1779C156.07 41.1141 156.162 40.9545 156.207 40.6962C156.223 40.6204 156.233 40.543 156.237 40.4651C156.236 40.4051 156.218 40.3468 156.186 40.2991C156.153 40.2514 156.107 40.2169 156.055 40.2007C155.828 40.1299 155.591 40.0997 155.355 40.111C154.778 40.0989 154.383 40.0421 154.171 39.9408C154.068 39.8917 153.982 39.8074 153.925 39.7C153.867 39.5926 153.842 39.4678 153.853 39.3435C153.859 39.1487 153.884 38.9551 153.927 38.766C153.966 38.5204 154.054 38.288 154.186 38.0866C154.298 37.9238 154.448 37.7982 154.62 37.7234C154.795 37.648 154.979 37.6009 155.166 37.5836C155.361 37.5638 155.613 37.5547 155.924 37.5547C156.151 37.5547 156.342 37.5547 156.495 37.576C156.644 37.5887 156.792 37.623 156.934 37.6778C157.068 37.7262 157.185 37.8183 157.271 37.9422C157.361 38.0839 157.405 38.2553 157.396 38.4286C157.395 38.5477 157.383 38.6665 157.36 38.7827L156.43 38.7903Z" fill="#00204A"/>
<path d="M158.123 37.912H158.652L158.853 37.001H159.861L159.662 37.912H161.271L161.103 38.6479H159.492L159.034 40.7087V40.7242C159.01 40.8198 158.995 40.9171 158.987 41.0152C158.984 41.0486 158.99 41.0823 159.003 41.1132C159.017 41.144 159.039 41.171 159.067 41.1917C159.153 41.2351 159.25 41.2538 159.347 41.2454C159.576 41.2454 159.733 41.1861 159.815 41.066C159.918 40.8937 159.988 40.7053 160.021 40.5095C160.031 40.4587 160.038 40.4205 160.044 40.3951H160.93C160.877 40.6597 160.798 40.9188 160.694 41.1691C160.62 41.3472 160.508 41.5088 160.366 41.6437C160.229 41.7645 160.064 41.8526 159.885 41.9008C159.656 41.9591 159.42 41.9862 159.184 41.9813C158.73 41.9813 158.411 41.93 158.227 41.8273C158.042 41.7256 157.951 41.5364 157.951 41.2624C157.956 41.0792 157.98 40.897 158.023 40.7186L158.479 38.6493H157.951L158.123 37.912Z" fill="#00204A"/>
<path d="M161.942 41.9823H160.717L161.806 37.7203H163.028L161.942 41.9823ZM163.271 36.7625H162.047L162.262 35.8945H163.484L163.271 36.7625Z" fill="#00204A"/>
<path d="M165.31 41.9821H163.848L163.485 37.5547H164.481L164.704 41.2577H164.728L166.34 37.5547H167.359L165.31 41.9821Z" fill="#00204A"/>
<path d="M169.689 41.3841H169.664C169.595 41.5134 169.497 41.626 169.38 41.714C169.269 41.7963 169.144 41.8567 169.011 41.8918C168.886 41.9271 168.757 41.9505 168.627 41.9618C168.504 41.9724 168.359 41.9785 168.193 41.9785C167.837 41.9986 167.48 41.9351 167.153 41.793C166.921 41.6699 166.806 41.4312 166.806 41.0801C166.808 40.9189 166.827 40.7584 166.864 40.6013C166.973 40.1016 167.176 39.7556 167.473 39.563C167.769 39.3705 168.199 39.2742 168.763 39.2742C169.012 39.2642 169.262 39.2861 169.506 39.3396C169.613 39.3681 169.711 39.42 169.795 39.4916C169.875 39.5663 169.933 39.6623 169.96 39.7682H169.993L170.109 39.2073C170.15 39.0423 170.175 38.8739 170.184 38.7041C170.19 38.6366 170.178 38.5687 170.148 38.5077C170.118 38.4468 170.072 38.3953 170.015 38.3591C169.817 38.2766 169.603 38.2422 169.39 38.2588C169.17 38.2475 168.95 38.286 168.746 38.3712C168.661 38.4245 168.59 38.4962 168.537 38.581C168.485 38.6658 168.452 38.7614 168.441 38.8607H167.404C167.453 38.6002 167.557 38.353 167.709 38.1356C167.831 37.9645 167.996 37.8282 168.187 37.7404C168.374 37.658 168.574 37.6066 168.778 37.5884C169.031 37.564 169.285 37.5528 169.539 37.5549C170.149 37.5549 170.584 37.6193 170.845 37.748C171.106 37.8767 171.235 38.1392 171.233 38.5354C171.229 38.7662 171.201 38.996 171.149 39.221L170.572 41.9329H169.536L169.689 41.3841ZM168.239 40.0859C168.077 40.1543 167.965 40.3261 167.905 40.6013C167.885 40.6905 167.873 40.7817 167.872 40.8734C167.862 40.9395 167.875 41.0069 167.908 41.0651C167.94 41.1234 167.992 41.1692 168.053 41.1956C168.268 41.2563 168.491 41.2809 168.714 41.2686C168.971 41.2818 169.227 41.2398 169.466 41.1455C169.637 41.0634 169.753 40.8825 169.814 40.6013C169.829 40.539 169.837 40.4753 169.838 40.4112C169.848 40.3376 169.833 40.2626 169.796 40.1983C169.758 40.1341 169.7 40.0843 169.631 40.0571C169.422 39.9978 169.204 39.9726 168.987 39.9826C168.732 39.9685 168.478 40.002 168.236 40.0814L168.239 40.0859Z" fill="#00204A"/>
<path d="M172.457 41.9823H171.232L172.777 35.8945H174L172.457 41.9823Z" fill="#00204A"/>
</svg>
